<svg width="14" height="11" viewBox="0 0 14 11" fill="none" xmlns="http://www.w3.org/2000/svg">
<path d="M4.21582 9.31836L6.73145 3.60352H7.94824L4.65332 11H3.77832L0.49707 3.60352H1.71387L4.21582 9.31836ZM1.34473 3.60352V11H0.0800781V3.60352H1.34473ZM7.0459 11V3.60352H8.31738V11H7.0459ZM11.209 3.30273H11.7832C12.0065 3.30273 12.1911 3.27083 12.3369 3.20703C12.4827 3.14323 12.5921 3.05664 12.665 2.94727C12.7425 2.83333 12.7812 2.70345 12.7812 2.55762C12.7812 2.3571 12.7083 2.18848 12.5625 2.05176C12.4167 1.91504 12.1865 1.84668 11.8721 1.84668C11.6123 1.84668 11.3958 1.90365 11.2227 2.01758C11.054 2.13151 10.9697 2.28646 10.9697 2.48242H9.89648C9.89648 2.17253 9.98307 1.90592 10.1562 1.68262C10.3294 1.45475 10.5641 1.2793 10.8604 1.15625C11.1566 1.0332 11.487 0.97168 11.8516 0.97168C12.248 0.97168 12.5967 1.03092 12.8975 1.14941C13.1982 1.26335 13.4329 1.43424 13.6016 1.66211C13.7702 1.88997 13.8545 2.17025 13.8545 2.50293C13.8545 2.74447 13.7793 2.96777 13.6289 3.17285C13.4831 3.37337 13.2689 3.53516 12.9863 3.6582C12.7083 3.77669 12.3688 3.83594 11.9678 3.83594H11.209V3.30273ZM11.209 4.08887V3.55566H11.9678C12.4235 3.55566 12.7972 3.61035 13.0889 3.71973C13.3805 3.8291 13.597 3.98633 13.7383 4.19141C13.8796 4.39648 13.9502 4.64486 13.9502 4.93652C13.9502 5.26921 13.859 5.55404 13.6768 5.79102C13.4945 6.02799 13.2438 6.20801 12.9248 6.33105C12.6104 6.4541 12.2549 6.51562 11.8584 6.51562C11.5166 6.51562 11.1885 6.46094 10.874 6.35156C10.5641 6.23763 10.3112 6.06217 10.1152 5.8252C9.91927 5.58822 9.82129 5.28516 9.82129 4.91602H10.8945C10.8945 5.12109 10.9857 5.29427 11.168 5.43555C11.3503 5.57227 11.5918 5.64062 11.8926 5.64062C12.2116 5.64062 12.4531 5.56999 12.6172 5.42871C12.7858 5.28743 12.8701 5.10514 12.8701 4.88184C12.8701 4.69043 12.8245 4.53776 12.7334 4.42383C12.6468 4.30534 12.5215 4.22103 12.3574 4.1709C12.1979 4.11621 12.0065 4.08887 11.7832 4.08887H11.209Z" fill="#121212"/>
</svg>
